<svg xmlns="http://www.w3.org/2000/svg" width="42" height="42" viewBox="0 0 42 42"><g transform="translate(-86 -659)"><circle cx="21" cy="21" r="21" transform="translate(86 659)" fill="#fff"/><path d="M4.029,18H.3V5.983H4.029ZM2.161,4.343A2.172,2.172,0,1,1,4.323,2.162,2.179,2.179,0,0,1,2.161,4.343ZM18,18H14.273V12.15c0-1.394-.028-3.182-1.94-3.182-1.94,0-2.238,1.515-2.238,3.082V18H6.367V5.983H9.946V7.622H10a3.921,3.921,0,0,1,3.531-1.941C17.306,5.681,18,8.169,18,11.4V18Z" transform="translate(98.5 670)" fill="#121212"/></g></svg>